<svg width="428" height="108" viewBox="0 0 428 108" fill="none" xmlns="http://www.w3.org/2000/svg">
<path d="M46.29 10C58.29 10 70.29 17 70.29 35V71.5C70.29 86.7 58.29 98 46.29 98H34.29C22.29 98 10.29 86.1 10.29 71.5V36C10.29 18 22.29 10 34.29 10H46.29ZM34.29 25C31.29 25 25.29 27 25.29 35V73C25.29 81 31.29 83 34.29 83H46.29C49.29 83 55.29 81 55.29 73V35C55.29 27 49.29 25 46.29 25H34.29Z" fill="#F2F2F2"/>
<path d="M95.29 10L125.29 68V10H140.29V98H125.29L95.29 40V98H80.29V10H95.29Z" fill="#F2F2F2"/>
<path d="M210.29 25H165.29V46H210.29V61H165.29V83H210.29V98H150.29V10H210.29V25Z" fill="#F2F2F2"/>
<path d="M258.743 55.6352C257.044 58.3026 262.755 65.2881 268.398 69.1596L275.55 58.7352C263.688 53.6022 260.173 53.5503 258.743 55.6352Z" fill="url(#paint0_linear_953_4336)"/>
<path d="M256.29 10C268.29 10 280.29 17 280.29 35V71.5C280.29 86.7 268.29 98 256.29 98H244.29C232.29 98 220.29 86.1 220.29 71.5V36C220.29 18 232.29 10 244.29 10H248.29V25H244.29C241.29 25 235.29 27 235.29 35V73C235.29 81 241.29 83 244.29 83H256.29C259.29 83 265.29 81 265.29 73V35C265.29 27 259.29 25 256.29 25H252.29V10H256.29Z" fill="#F2F2F2"/>
<path d="M283.452 103.053C279.565 101.757 254.638 83.2817 254.638 83.2817C251.388 81.0511 245.45 75.7681 247.705 72.4808C249.961 69.1936 256.158 59.6455 258.974 55.2824C257.282 57.8987 261.483 63.8035 265.916 66.8452C265.916 66.8452 302.574 91.9741 294.73 86.6161C290.49 83.7197 287.446 92.8171 287.705 95.6823C287.964 98.5475 285.238 103.648 283.452 103.053Z" fill="#F2F2F2"/>
<path d="M324.992 81.744C326.336 81.744 327.584 82 328.736 82.512C329.92 83.024 330.928 83.744 331.76 84.672C332.624 85.568 333.28 86.656 333.728 87.936C334.208 89.184 334.448 90.56 334.448 92.064C334.448 93.472 334.224 94.784 333.776 96C333.36 97.216 332.752 98.272 331.952 99.168C331.152 100.032 330.208 100.72 329.12 101.232C328.032 101.744 326.816 102 325.472 102H310.592V95.952H323.744C324.384 95.952 324.992 95.872 325.568 95.712C326.176 95.552 326.688 95.312 327.104 94.992C327.52 94.672 327.856 94.272 328.112 93.792C328.368 93.312 328.496 92.736 328.496 92.064C328.496 90.816 328.08 89.84 327.248 89.136C326.448 88.432 325.44 88.08 324.224 88.08H320.336C318.704 88.08 317.216 87.904 315.872 87.552C314.528 87.2 313.392 86.64 312.464 85.872C311.536 85.104 310.816 84.112 310.304 82.896C309.792 81.68 309.536 80.224 309.536 78.528C309.536 77.344 309.744 76.192 310.16 75.072C310.576 73.952 311.152 72.976 311.888 72.144C312.624 71.28 313.52 70.592 314.576 70.08C315.632 69.568 316.8 69.312 318.08 69.312H331.568V75.696H320.576C319.936 75.696 319.344 75.744 318.8 75.84C318.256 75.904 317.776 76.048 317.36 76.272C316.944 76.464 316.624 76.768 316.4 77.184C316.176 77.6 316.064 78.16 316.064 78.864C316.064 79.664 316.336 80.352 316.88 80.928C317.424 81.472 318.16 81.744 319.088 81.744H324.992ZM348.08 96.48C348.848 96.48 349.504 96.304 350.048 95.952C350.592 95.568 350.944 95.056 351.104 94.416H356.816C356.528 96.72 355.632 98.56 354.128 99.936C352.624 101.312 350.608 102 348.08 102H346.112C344.736 102 343.488 101.792 342.368 101.376C341.248 100.96 340.304 100.368 339.536 99.6C338.768 98.8 338.16 97.856 337.712 96.768C337.296 95.648 337.088 94.416 337.088 93.072V86.496C337.088 85.12 337.296 83.888 337.712 82.8C338.16 81.712 338.768 80.784 339.536 80.016C340.304 79.248 341.248 78.656 342.368 78.24C343.488 77.792 344.736 77.568 346.112 77.568H348.08C350.672 77.568 352.72 78.256 354.224 79.632C355.728 81.008 356.592 82.896 356.816 85.296H351.152C350.96 84.592 350.608 84.048 350.096 83.664C349.584 83.28 348.912 83.088 348.08 83.088H346.112C345.088 83.088 344.24 83.424 343.568 84.096C342.928 84.736 342.608 85.584 342.608 86.64V92.88C342.608 93.936 342.928 94.8 343.568 95.472C344.24 96.144 345.088 96.48 346.112 96.48H348.08ZM369.977 77.568C371.385 77.568 372.633 77.792 373.721 78.24C374.841 78.656 375.785 79.248 376.553 80.016C377.353 80.784 377.961 81.712 378.377 82.8C378.793 83.888 379.001 85.12 379.001 86.496V93.072C379.001 94.416 378.793 95.648 378.377 96.768C377.961 97.856 377.353 98.8 376.553 99.6C375.785 100.368 374.841 100.96 373.721 101.376C372.633 101.792 371.385 102 369.977 102H368.009C366.633 102 365.385 101.792 364.265 101.376C363.145 100.96 362.185 100.368 361.385 99.6C360.617 98.8 360.025 97.856 359.609 96.768C359.225 95.648 359.033 94.416 359.033 93.072V86.496C359.033 85.12 359.225 83.888 359.609 82.8C360.025 81.712 360.617 80.784 361.385 80.016C362.185 79.248 363.145 78.656 364.265 78.24C365.385 77.792 366.633 77.568 368.009 77.568H369.977ZM368.009 83.088C367.017 83.088 366.169 83.424 365.465 84.096C364.793 84.736 364.457 85.584 364.457 86.64V92.88C364.457 93.936 364.793 94.8 365.465 95.472C366.169 96.144 367.017 96.48 368.009 96.48H369.977C371.001 96.48 371.833 96.144 372.473 95.472C373.145 94.8 373.481 93.936 373.481 92.88V86.64C373.481 85.584 373.145 84.736 372.473 84.096C371.833 83.424 371.001 83.088 369.977 83.088H368.009ZM388.533 82.56C388.981 81.824 389.573 81.184 390.309 80.64C391.077 80.064 391.909 79.584 392.805 79.2C393.733 78.816 394.709 78.528 395.733 78.336C396.757 78.144 397.781 78.048 398.805 78.048H399.429V84H398.805C397.653 84 396.469 84.24 395.253 84.72C394.037 85.168 392.917 85.776 391.893 86.544C390.901 87.28 390.085 88.112 389.445 89.04C388.837 89.968 388.533 90.896 388.533 91.824V102H382.581V77.376H388.533V82.56ZM402.442 86.256C402.442 85.072 402.666 83.968 403.114 82.944C403.562 81.888 404.154 80.96 404.89 80.16C405.626 79.36 406.474 78.736 407.434 78.288C408.394 77.808 409.354 77.568 410.314 77.568H415.786C417.034 77.568 418.138 77.84 419.098 78.384C420.09 78.896 420.906 79.568 421.546 80.4C422.218 81.2 422.73 82.112 423.082 83.136C423.466 84.128 423.658 85.104 423.658 86.064V92.256H408.106V93.552C408.106 94.704 408.426 95.52 409.066 96C409.706 96.48 410.554 96.72 411.61 96.72H422.794V102.096H410.362C409.274 102.096 408.25 101.888 407.29 101.472C406.33 101.024 405.482 100.432 404.746 99.696C404.042 98.96 403.482 98.08 403.066 97.056C402.65 96.032 402.442 94.912 402.442 93.696V86.256ZM408.154 87.696H418.09V87.456C418.09 86.208 417.77 85.184 417.13 84.384C416.49 83.552 415.626 83.136 414.538 83.136H411.562C411.05 83.136 410.586 83.264 410.17 83.52C409.754 83.744 409.402 84.048 409.114 84.432C408.826 84.816 408.586 85.28 408.394 85.824C408.234 86.336 408.154 86.88 408.154 87.456V87.696Z" fill="#F2F2F2"/>
<defs>
<linearGradient id="paint0_linear_953_4336" x1="271.635" y1="60.0582" x2="258.956" y2="60.7033" gradientUnits="userSpaceOnUse">
<stop stop-color="#0052CC"/>
<stop offset="0.745259" stop-color="#0066FF"/>
<stop offset="0.927963" stop-color="#0066FF"/>
</linearGradient>
</defs>
</svg>
