<svg width="18" height="20" viewBox="0 0 18 20" fill="none" xmlns="http://www.w3.org/2000/svg">
<path d="M8.20986 0.595326C8.41292 0.394127 8.68721 0.28125 8.97306 0.28125C9.25892 0.28125 9.53321 0.394127 9.73626 0.595326L16.9363 7.79533C17.0424 7.8942 17.1275 8.01343 17.1865 8.14591C17.2455 8.27839 17.2773 8.4214 17.2798 8.56641C17.2824 8.71143 17.2557 8.85547 17.2014 8.98995C17.1471 9.12442 17.0662 9.24658 16.9637 9.34914C16.8611 9.4517 16.739 9.53254 16.6045 9.58686C16.47 9.64118 16.326 9.66786 16.181 9.6653C16.0359 9.66274 15.8929 9.631 15.7604 9.57197C15.628 9.51294 15.5087 9.42783 15.4099 9.32172L10.0531 3.96493L10.0531 18.6385C10.0531 18.925 9.93928 19.1997 9.73674 19.4022C9.5342 19.6047 9.2595 19.7185 8.97306 19.7185C8.68663 19.7185 8.41193 19.6047 8.20939 19.4022C8.00685 19.1997 7.89306 18.925 7.89306 18.6385L7.89306 3.96493L2.53626 9.32172C2.33153 9.5125 2.06074 9.61635 1.78095 9.61142C1.50116 9.60648 1.2342 9.49314 1.03633 9.29526C0.838451 9.09739 0.725106 8.83043 0.720169 8.55064C0.715233 8.27084 0.81909 8.00006 1.00986 7.79533L8.20986 0.595326Z" fill="#F2F2F2"/>
</svg>
