<svg width="24" height="24" viewBox="0 0 24 24" fill="none" xmlns="http://www.w3.org/2000/svg">
<path d="M20.293 2.29297C20.6835 1.90244 21.3165 1.90244 21.707 2.29297C22.0974 2.6835 22.0975 3.31654 21.707 3.70703L13.4141 12L21.707 20.293C22.0974 20.6835 22.0975 21.3165 21.707 21.707C21.3165 22.0975 20.6835 22.0974 20.293 21.707L12 13.4141L3.70703 21.707C3.31654 22.0975 2.6835 22.0974 2.29297 21.707C1.90244 21.3165 1.90244 20.6835 2.29297 20.293L10.5859 12L2.29297 3.70703C1.90244 3.31651 1.90244 2.68349 2.29297 2.29297C2.68349 1.90244 3.31651 1.90244 3.70703 2.29297L12 10.5859L20.293 2.29297Z" fill="#808080"/>
</svg>
