<svg width="102" height="102" viewBox="0 0 102 102" fill="none" xmlns="http://www.w3.org/2000/svg">
<path d="M75.8887 19C77.7747 19 79.5834 19.7494 80.917 21.083C82.2506 22.4166 83 24.2253 83 26.1113V75.8887C83 77.7747 82.2506 79.5834 80.917 80.917C79.5834 82.2506 77.7747 83 75.8887 83H26.1113C24.2253 83 22.4166 82.2506 21.083 80.917C19.7494 79.5834 19 77.7747 19 75.8887V26.1113C19 24.2253 19.7494 22.4166 21.083 21.083C22.4166 19.7494 24.2253 19 26.1113 19H75.8887ZM51 40.8984C48.6873 40.8986 47.0322 42.6644 47.0322 45.3096V66.4756C47.0322 69.1208 48.6855 70.8846 51 70.8848C53.3147 70.8848 54.9688 69.1209 54.9688 66.4756V45.3096C54.9688 42.6625 53.3129 40.8984 51 40.8984ZM51.002 28.9932C48.6322 28.9932 46.5381 31.0891 46.5381 33.3486C46.5381 35.7734 48.6323 37.9228 51.002 37.9229C53.4837 37.9229 55.4658 35.8286 55.4658 33.3486C55.4658 31.034 53.3717 28.9949 51.002 28.9932Z" fill="#3B88C3"/>
</svg>
