<svg width="102" height="102" viewBox="0 0 102 102" fill="none" xmlns="http://www.w3.org/2000/svg">
<path d="M56.5208 13.3789L93.2153 76.9334C93.7748 77.9025 94.0693 79.0018 94.0693 80.1208C94.0694 81.2399 93.7748 82.3392 93.2153 83.3083C92.6558 84.2774 91.8511 85.0822 90.882 85.6417C89.9128 86.2013 88.8135 86.4959 87.6945 86.4959H14.3055C13.1865 86.4959 12.0872 86.2013 11.1181 85.6417C10.149 85.0822 9.34422 84.2774 8.78471 83.3083C8.22521 82.3392 7.93066 81.2399 7.93066 80.1208C7.93067 79.0018 8.22524 77.9025 8.78475 76.9334L45.4793 13.3789C47.9315 9.12891 54.0643 9.12891 56.5208 13.3789ZM51 63.7499C49.8728 63.7499 48.7918 64.1977 47.9948 64.9947C47.1978 65.7917 46.75 66.8727 46.75 67.9999C46.75 69.1271 47.1978 70.2081 47.9948 71.0051C48.7918 71.8021 49.8728 72.2499 51 72.2499C52.1272 72.2499 53.2082 71.8021 54.0052 71.0051C54.8022 70.2081 55.25 69.1271 55.25 67.9999C55.25 66.8727 54.8022 65.7917 54.0052 64.9947C53.2082 64.1977 52.1272 63.7499 51 63.7499ZM51 33.9999C49.959 34 48.9543 34.3822 48.1764 35.0739C47.3985 35.7657 46.9015 36.7188 46.7798 37.7527L46.75 38.2499V55.2499C46.7512 56.3331 47.166 57.375 47.9096 58.1627C48.6532 58.9504 49.6696 59.4244 50.7509 59.4879C51.8323 59.5514 52.8971 59.1995 53.7278 58.5043C54.5585 57.809 55.0923 56.8228 55.2203 55.7472L55.25 55.2499V38.2499C55.25 37.1227 54.8022 36.0417 54.0052 35.2447C53.2082 34.4477 52.1272 33.9999 51 33.9999Z" fill="#FFBE26"/>
</svg>
