<svg width="1279" height="502" viewBox="0 0 1279 502" fill="none" xmlns="http://www.w3.org/2000/svg">
<g filter="url(#filter0_d_310_1104)">
<path d="M198.313 82.7679C249.635 82.768 300.957 112.706 300.957 189.688V345.791C300.957 410.799 249.635 459.126 198.313 459.126H146.992C95.6704 459.126 44.3485 408.233 44.3484 345.791V193.965C44.3484 116.983 95.6703 82.7679 146.992 82.7679H198.313ZM146.992 146.92C134.162 146.92 108.501 155.474 108.501 189.688V352.206C108.501 386.421 134.162 394.974 146.992 394.974H198.313C211.144 394.974 236.804 386.421 236.804 352.206V189.688C236.804 155.474 211.144 146.92 198.313 146.92H146.992Z" fill="#F2F2F2"/>
<path d="M407.877 82.7679L536.18 330.823V82.7679H600.333V459.126H536.18L407.877 211.072V459.126H343.724V82.7679H407.877Z" fill="#F2F2F2"/>
<path d="M899.709 146.92H707.253V236.733H899.709V300.885H707.253V394.974H899.709V459.126H643.1V82.7679H899.709V146.92Z" fill="#F2F2F2"/>
<path d="M1106.93 277.938C1099.66 289.346 1124.09 319.222 1148.22 335.779L1178.81 291.196C1128.08 269.244 1113.05 269.022 1106.93 277.938Z" fill="url(#paint0_linear_310_1104)"/>
<path d="M1096.44 82.7679C1147.76 82.768 1199.08 112.706 1199.08 189.688V345.791C1199.08 410.799 1147.76 459.126 1096.44 459.126H1045.12C993.798 459.126 942.476 408.233 942.476 345.791V193.965C942.476 116.983 993.798 82.7679 1045.12 82.7679H1062.23V146.92H1045.12C1032.29 146.92 1006.63 155.474 1006.63 189.688V352.206C1006.63 386.421 1032.29 394.974 1045.12 394.974H1096.44C1109.27 394.974 1134.93 386.421 1134.93 352.206V189.688C1134.93 155.474 1109.27 146.92 1096.44 146.92H1079.33V82.7679H1096.44Z" fill="#0066FF"/>
<path d="M1212.61 480.735C1195.99 475.193 1089.38 396.179 1089.38 396.179C1075.47 386.639 1050.08 364.045 1059.73 349.986C1069.37 335.927 1095.88 295.092 1107.92 276.432C1100.68 287.621 1118.65 312.875 1137.61 325.884C1137.61 325.884 1294.39 433.355 1260.84 410.44C1242.71 398.053 1229.69 436.96 1230.8 449.214C1231.91 461.468 1220.24 483.282 1212.61 480.735Z" fill="#F2F2F2"/>
</g>
<defs>
<filter id="filter0_d_310_1104" x="-89.6602" y="0" width="1463.04" height="641.894" filterUnits="userSpaceOnUse" color-interpolation-filters="sRGB">
<feFlood flood-opacity="0" result="BackgroundImageFix"/>
<feColorMatrix in="SourceAlpha" type="matrix" values="0 0 0 0 0 0 0 0 0 0 0 0 0 0 0 0 0 0 127 0" result="hardAlpha"/>
<feOffset dy="50"/>
<feGaussianBlur stdDeviation="45"/>
<feComposite in2="hardAlpha" operator="out"/>
<feColorMatrix type="matrix" values="0 0 0 0 0 0 0 0 0 0 0 0 0 0 0 0 0 0 0.25 0"/>
<feBlend mode="normal" in2="BackgroundImageFix" result="effect1_dropShadow_310_1104"/>
<feBlend mode="normal" in="SourceGraphic" in2="effect1_dropShadow_310_1104" result="shape"/>
</filter>
<linearGradient id="paint0_linear_310_1104" x1="1162.07" y1="296.855" x2="1107.84" y2="299.614" gradientUnits="userSpaceOnUse">
<stop stop-color="#0052CC"/>
<stop offset="0.745259" stop-color="#0066FF"/>
<stop offset="0.927963" stop-color="#0066FF"/>
</linearGradient>
</defs>
</svg>
