<svg width="96" height="35" viewBox="0 0 96 35" fill="none" xmlns="http://www.w3.org/2000/svg">
<path d="M14.8124 3.2002C18.6524 3.2002 22.493 5.4402 22.493 11.2002V22.8799C22.493 27.7439 18.6524 31.3604 14.8124 31.3604H10.9725C7.13264 31.3601 3.29285 27.5518 3.29285 22.8799V11.5205C3.29285 5.76066 7.13264 3.20033 10.9725 3.2002H14.8124ZM10.9725 8C10.0124 8.00012 8.09265 8.64044 8.09265 11.2002V23.3604C8.09283 25.9198 10.0125 26.5594 10.9725 26.5596H14.8124C15.7723 26.5596 17.6931 25.9201 17.6932 23.3604V11.2002C17.6932 8.6402 15.7724 8 14.8124 8H10.9725Z" fill="#F2F2F2"/>
<path d="M30.4927 3.2002L40.0933 21.7598V3.2002H44.8931V31.3604H40.0933L30.4927 12.7998V31.3604H25.6929V3.2002H30.4927Z" fill="#F2F2F2"/>
<path d="M67.293 8H52.8926V14.7197H67.293V19.5195H52.8926V26.5596H67.293V31.3604H48.0928V3.2002H67.293V8Z" fill="#F2F2F2"/>
<path d="M82.7976 17.8031C82.2539 18.6566 84.0816 20.892 85.8871 22.1309L88.176 18.7951C84.3802 17.1525 83.2554 17.1359 82.7976 17.8031Z" fill="#1A1A1A"/>
<path d="M82.0125 3.2002C85.8525 3.2002 89.6931 5.4402 89.6931 11.2002V22.8799C89.6931 27.7439 85.8525 31.3604 82.0125 31.3604H78.1726C74.3327 31.3601 70.4929 27.5518 70.4929 22.8799V11.5205C70.4929 5.76066 74.3327 3.20033 78.1726 3.2002H79.4529V8H78.1726C77.2125 8.00009 75.2927 8.64038 75.2927 11.2002V23.3604C75.2929 25.9199 77.2126 26.5595 78.1726 26.5596H82.0125C82.9724 26.5596 84.8922 25.9201 84.8923 23.3604V11.2002C84.8923 8.6402 82.9725 8 82.0125 8H80.7332V3.2002H82.0125Z" fill="#F2F2F2"/>
<path d="M90.7047 32.977C89.461 32.5623 81.4843 26.6503 81.4843 26.6503C80.444 25.9365 78.544 24.2459 79.2658 23.194C79.9876 22.1421 81.9705 19.0867 82.8717 17.6905C82.3303 18.5277 83.6747 20.4173 85.0933 21.3906C85.0933 21.3906 96.8236 29.4319 94.3137 27.7173C92.9568 26.7904 91.9826 29.7016 92.0656 30.6185C92.1486 31.5353 91.2761 33.1675 90.7047 32.977Z" fill="#F2F2F2"/>
</svg>
