<svg width="1280" height="545" viewBox="0 0 1280 545" fill="none" xmlns="http://www.w3.org/2000/svg">
<g clip-path="url(#clip0_532_1992)">
<rect width="1280" height="545" fill="#1A1A1A"/>
<rect width="1280" height="376" transform="translate(0 118)" fill="url(#paint0_radial_532_1992)"/>
<path d="M1124.59 313.171C1117.32 324.578 1141.75 354.454 1165.88 371.012L1196.47 326.429C1145.74 304.476 1130.71 304.254 1124.59 313.171Z" fill="url(#paint1_linear_532_1992)"/>
<path d="M1114.1 118C1165.42 118 1216.74 147.938 1216.74 224.92V381.024C1216.74 446.031 1165.42 494.358 1114.1 494.359H1062.78C1011.46 494.359 960.136 443.465 960.136 381.024V229.197C960.136 152.215 1011.46 118 1062.78 118H1079.89V182.152H1062.78C1049.95 182.152 1024.29 190.706 1024.29 224.92V387.439C1024.29 421.653 1049.95 430.206 1062.78 430.206H1114.1C1126.93 430.206 1152.59 421.653 1152.59 387.439V224.92C1152.59 190.706 1126.93 182.152 1114.1 182.152H1096.99V118H1114.1Z" fill="#0066FF"/>
<path d="M1230.27 515.967C1213.65 510.425 1107.04 431.411 1107.04 431.411C1093.13 421.871 1067.74 399.277 1077.39 385.218C1087.03 371.159 1113.54 330.324 1125.58 311.664C1118.34 322.853 1136.31 348.107 1155.27 361.116C1155.27 361.116 1312.05 468.587 1278.5 445.672C1260.37 433.285 1247.35 472.193 1248.46 484.446C1249.57 496.7 1237.9 518.514 1230.27 515.967Z" fill="#F2F2F2"/>
<g filter="url(#filter0_d_532_1992)">
<path d="M216.965 118C268.286 118 319.608 147.938 319.608 224.92V381.023C319.608 446.031 268.286 494.358 216.965 494.358H165.644C114.322 494.358 63.0001 443.465 63 381.023V229.197C63 152.215 114.322 118 165.644 118H216.965ZM165.644 182.152C152.813 182.152 127.152 190.706 127.152 224.92V387.438C127.152 421.653 152.813 430.206 165.644 430.206H216.965C229.795 430.206 255.456 421.653 255.456 387.438V224.92C255.456 190.706 229.795 182.152 216.965 182.152H165.644Z" fill="#F2F2F2"/>
</g>
<g clip-path="url(#clip1_532_1992)">
<g filter="url(#filter1_d_532_1992)">
<path d="M426.152 117L554.456 365.055V117H618.608V493.358H554.456L426.152 245.304V493.358H362V117H426.152Z" fill="#F2F2F2"/>
</g>
</g>
<g clip-path="url(#clip2_532_1992)">
<g filter="url(#filter2_d_532_1992)">
<path d="M917.608 182.152H725.152V271.965H917.608V336.117H725.152V430.206H917.608V494.358H661V118H917.608V182.152Z" fill="#F2F2F2"/>
</g>
</g>
<rect y="537" width="1280" height="8" fill="#003D99"/>
</g>
<defs>
<filter id="filter0_d_532_1992" x="33" y="88" width="336.608" height="456.358" filterUnits="userSpaceOnUse" color-interpolation-filters="sRGB">
<feFlood flood-opacity="0" result="BackgroundImageFix"/>
<feColorMatrix in="SourceAlpha" type="matrix" values="0 0 0 0 0 0 0 0 0 0 0 0 0 0 0 0 0 0 127 0" result="hardAlpha"/>
<feOffset dx="10" dy="10"/>
<feGaussianBlur stdDeviation="20"/>
<feComposite in2="hardAlpha" operator="out"/>
<feColorMatrix type="matrix" values="0 0 0 0 0 0 0 0 0 0 0 0 0 0 0 0 0 0 0.3 0"/>
<feBlend mode="normal" in2="BackgroundImageFix" result="effect1_dropShadow_532_1992"/>
<feBlend mode="normal" in="SourceGraphic" in2="effect1_dropShadow_532_1992" result="shape"/>
</filter>
<filter id="filter1_d_532_1992" x="332" y="87" width="336.608" height="456.358" filterUnits="userSpaceOnUse" color-interpolation-filters="sRGB">
<feFlood flood-opacity="0" result="BackgroundImageFix"/>
<feColorMatrix in="SourceAlpha" type="matrix" values="0 0 0 0 0 0 0 0 0 0 0 0 0 0 0 0 0 0 127 0" result="hardAlpha"/>
<feOffset dx="10" dy="10"/>
<feGaussianBlur stdDeviation="20"/>
<feComposite in2="hardAlpha" operator="out"/>
<feColorMatrix type="matrix" values="0 0 0 0 0 0 0 0 0 0 0 0 0 0 0 0 0 0 0.3 0"/>
<feBlend mode="normal" in2="BackgroundImageFix" result="effect1_dropShadow_532_1992"/>
<feBlend mode="normal" in="SourceGraphic" in2="effect1_dropShadow_532_1992" result="shape"/>
</filter>
<filter id="filter2_d_532_1992" x="631" y="88" width="336.608" height="456.358" filterUnits="userSpaceOnUse" color-interpolation-filters="sRGB">
<feFlood flood-opacity="0" result="BackgroundImageFix"/>
<feColorMatrix in="SourceAlpha" type="matrix" values="0 0 0 0 0 0 0 0 0 0 0 0 0 0 0 0 0 0 127 0" result="hardAlpha"/>
<feOffset dx="10" dy="10"/>
<feGaussianBlur stdDeviation="20"/>
<feComposite in2="hardAlpha" operator="out"/>
<feColorMatrix type="matrix" values="0 0 0 0 0 0 0 0 0 0 0 0 0 0 0 0 0 0 0.3 0"/>
<feBlend mode="normal" in2="BackgroundImageFix" result="effect1_dropShadow_532_1992"/>
<feBlend mode="normal" in="SourceGraphic" in2="effect1_dropShadow_532_1992" result="shape"/>
</filter>
<radialGradient id="paint0_radial_532_1992" cx="0" cy="0" r="1" gradientUnits="userSpaceOnUse" gradientTransform="translate(622.837 188) scale(901.663 264.864)">
<stop offset="0.322115" stop-color="#0066FF"/>
<stop offset="1" stop-color="#003D99"/>
</radialGradient>
<linearGradient id="paint1_linear_532_1992" x1="1179.73" y1="332.087" x2="1125.5" y2="334.846" gradientUnits="userSpaceOnUse">
<stop stop-color="#0052CC"/>
<stop offset="0.745259" stop-color="#0066FF"/>
<stop offset="0.927963" stop-color="#0066FF"/>
</linearGradient>
<clipPath id="clip0_532_1992">
<rect width="1280" height="545" fill="white"/>
</clipPath>
<clipPath id="clip1_532_1992">
<rect width="256.608" height="376.358" fill="white" transform="translate(362 117)"/>
</clipPath>
<clipPath id="clip2_532_1992">
<rect width="256.608" height="376.358" fill="white" transform="translate(661 118)"/>
</clipPath>
</defs>
</svg>
