<svg width="97" height="36" viewBox="0 0 97 36" fill="none" xmlns="http://www.w3.org/2000/svg">
<path d="M15.1023 3.91992C18.9423 3.91992 22.783 6.15992 22.783 11.9199V23.5996C22.783 28.4636 18.9423 32.0801 15.1023 32.0801H11.2625C7.42256 32.0799 3.58276 28.2715 3.58276 23.5996V12.2402C3.58276 6.48039 7.42256 3.92006 11.2625 3.91992H15.1023ZM11.2625 8.71973C10.3023 8.7199 8.38257 9.36028 8.38257 11.9199V24.0801C8.38265 26.6396 10.3023 27.2801 11.2625 27.2803H15.1033C16.0634 27.2801 17.9831 26.6396 17.9832 24.0801V11.9199C17.9832 9.3603 16.0634 8.71991 15.1033 8.71973H11.2625Z" fill="#F2F2F2"/>
<path d="M30.7827 3.91992L40.3833 22.4795V3.91992H45.1831V32.0801H40.3833L30.7827 13.5195V32.0801H25.9829V3.91992H30.7827Z" fill="#F2F2F2"/>
<path d="M67.583 8.71973H53.1826V15.4395H67.583V20.2402H53.1826V27.2803H67.583V32.0801H48.3828V3.91992H67.583V8.71973Z" fill="#F2F2F2"/>
<path d="M83.0876 18.5231C82.544 19.3766 84.3717 21.612 86.1772 22.8509L88.4661 19.515C84.6702 17.8725 83.5454 17.8559 83.0876 18.5231Z" fill="url(#paint0_linear_255_1588)"/>
<path d="M82.3025 3.91992C86.1425 3.91992 89.9832 6.15992 89.9832 11.9199V23.5996C89.9832 28.4636 86.1425 32.0801 82.3025 32.0801H78.4626C74.6228 32.0799 70.783 28.2715 70.783 23.5996V12.2402C70.783 6.48039 74.6228 3.92006 78.4626 3.91992H79.7429V8.71973H78.4626C77.5026 8.71982 75.5828 9.36011 75.5828 11.9199V24.0801C75.5828 26.6398 77.5026 27.2802 78.4626 27.2803H82.3025C83.2625 27.2803 85.1823 26.6399 85.1824 24.0801V11.9199C85.1824 9.35992 83.2625 8.71973 82.3025 8.71973H81.0232V3.91992H82.3025Z" fill="#0066FF"/>
<path d="M90.9947 33.6967C89.751 33.282 81.7743 27.37 81.7743 27.37C80.7341 26.6562 78.834 24.9657 79.5558 23.9137C80.2776 22.8618 82.2605 19.8064 83.1617 18.4102C82.6203 19.2475 83.9648 21.137 85.3833 22.1103C85.3833 22.1103 97.1137 30.1516 94.6037 28.437C93.2469 27.5102 92.2727 30.4214 92.3557 31.3382C92.4387 32.2551 91.5661 33.8872 90.9947 33.6967Z" fill="#F2F2F2"/>
<defs>
<linearGradient id="paint0_linear_255_1588" x1="87.2133" y1="19.9384" x2="83.1558" y2="20.1449" gradientUnits="userSpaceOnUse">
<stop stop-color="#0052CC"/>
<stop offset="0.745259" stop-color="#0066FF"/>
<stop offset="0.927963" stop-color="#0066FF"/>
</linearGradient>
</defs>
</svg>
